<mxfile host="app.diagrams.net" agent="Mozilla/5.0 (Windows NT 10.0; Win64; x64) AppleWebKit/537.36 (KHTML, like Gecko) Chrome/129.0.0.0 Safari/537.36" version="24.7.16">
  <diagram name="Страница — 1" id="MHpBdJXiEZs-bnn1Wk0y">
    <mxGraphModel dx="1434" dy="784" grid="1" gridSize="1" guides="1" tooltips="1" connect="1" arrows="1" fold="1" page="1" pageScale="1" pageWidth="827" pageHeight="1169" math="0" shadow="0">
      <root>
        <mxCell id="0" />
        <mxCell id="1" parent="0" />
        <mxCell id="KBLDiju2WBnaZNLSjC8g-6" value="&lt;h1&gt;&lt;font color=&quot;#66cc00&quot;&gt;Справочник диетолога&lt;/font&gt;&lt;/h1&gt;" style="rounded=0;whiteSpace=wrap;html=1;fillColor=#D4EBBC;" parent="1" vertex="1">
          <mxGeometry width="827" height="103" as="geometry" />
        </mxCell>
        <mxCell id="KBLDiju2WBnaZNLSjC8g-9" value="" style="rounded=0;whiteSpace=wrap;html=1;fillColor=#F3FDE8;" parent="1" vertex="1">
          <mxGeometry y="103" width="827" height="1063" as="geometry" />
        </mxCell>
        <mxCell id="KBLDiju2WBnaZNLSjC8g-7" value="" style="sketch=0;outlineConnect=0;fontColor=#232F3E;gradientColor=none;fillColor=#66CC00;strokeColor=none;dashed=0;verticalLabelPosition=bottom;verticalAlign=top;align=center;html=1;fontSize=12;fontStyle=0;aspect=fixed;pointerEvents=1;shape=mxgraph.aws4.container_registry_image;" parent="1" vertex="1">
          <mxGeometry x="34" y="9" width="79" height="79" as="geometry" />
        </mxCell>
        <mxCell id="KBLDiju2WBnaZNLSjC8g-11" value="&lt;h2&gt;&lt;font face=&quot;Georgia&quot; color=&quot;#57290e&quot;&gt;ДОБАВИТЬ/ИЗМЕНИТЬ КАТЕГОРИЮ&lt;/font&gt;&lt;/h2&gt;" style="text;html=1;align=center;verticalAlign=middle;whiteSpace=wrap;rounded=0;" parent="1" vertex="1">
          <mxGeometry x="220" y="129" width="392" height="30" as="geometry" />
        </mxCell>
        <mxCell id="KBLDiju2WBnaZNLSjC8g-12" value="&lt;font face=&quot;Georgia&quot; color=&quot;#57290e&quot;&gt;&lt;span style=&quot;font-size: 14px;&quot;&gt;Изображение&lt;/span&gt;&lt;/font&gt;" style="fillColor=none;strokeColor=none;html=1;fontSize=11;fontStyle=0;align=left;fontColor=#596780;fontStyle=1;fontSize=11" parent="1" vertex="1">
          <mxGeometry x="284" y="253" width="240" height="20" as="geometry" />
        </mxCell>
        <mxCell id="KBLDiju2WBnaZNLSjC8g-14" value="&lt;font face=&quot;Georgia&quot; color=&quot;#57290e&quot;&gt;&lt;span style=&quot;font-size: 14px;&quot;&gt;Название категории&lt;/span&gt;&lt;/font&gt;" style="fillColor=none;strokeColor=none;html=1;fontSize=11;fontStyle=0;align=left;fontColor=#596780;fontStyle=1;fontSize=11" parent="1" vertex="1">
          <mxGeometry x="284" y="185" width="240" height="20" as="geometry" />
        </mxCell>
        <mxCell id="KBLDiju2WBnaZNLSjC8g-15" value="&lt;font style=&quot;font-size: 14px;&quot; color=&quot;#57290e&quot;&gt;&lt;i&gt;название&lt;/i&gt;&lt;/font&gt;" style="rounded=1;arcSize=9;align=left;spacingLeft=5;strokeColor=#66CC00;html=1;strokeWidth=2;fontSize=12" parent="1" vertex="1">
          <mxGeometry x="284" y="210" width="290" height="33" as="geometry" />
        </mxCell>
        <mxCell id="4UEEjsPfrM63260ZoVqT-1" value="" style="html=1;verticalLabelPosition=bottom;align=center;labelBackgroundColor=#ffffff;verticalAlign=top;strokeWidth=2;strokeColor=#66CC00;shadow=0;dashed=0;shape=mxgraph.ios7.icons.user;aspect=fixed;fillColor=none;" parent="1" vertex="1">
          <mxGeometry x="727" y="10" width="79" height="79" as="geometry" />
        </mxCell>
        <mxCell id="B4r0x6zWwnCoDJnPljFq-6" value="" style="shape=image;html=1;verticalAlign=top;verticalLabelPosition=bottom;labelBackgroundColor=#ffffff;imageAspect=0;aspect=fixed;image=https://cdn1.iconfinder.com/data/icons/iconoir-vol-1/24/add-media-image-128.png" parent="1" vertex="1">
          <mxGeometry x="282" y="273" width="71" height="71" as="geometry" />
        </mxCell>
        <mxCell id="B4r0x6zWwnCoDJnPljFq-7" value="&lt;font color=&quot;#57290e&quot; face=&quot;Georgia&quot;&gt;Добавить&lt;/font&gt;" style="strokeWidth=1;shadow=0;dashed=0;align=center;html=1;shape=mxgraph.mockup.buttons.button;strokeColor=#66CC00;fontColor=#ffffff;mainText=;buttonStyle=round;fontSize=17;fontStyle=1;fillColor=#D4EBBC;whiteSpace=wrap;" parent="1" vertex="1">
          <mxGeometry x="479" y="359" width="110" height="45" as="geometry" />
        </mxCell>
      </root>
    </mxGraphModel>
  </diagram>
</mxfile>
